<?xml version="1.0" encoding="utf-8"?>
<!-- Generator: Adobe Illustrator 18.0.0, SVG Export Plug-In . SVG Version: 6.00 Build 0)  -->
<!DOCTYPE svg PUBLIC "-//W3C//DTD SVG 1.1//EN" "http://www.w3.org/Graphics/SVG/1.1/DTD/svg11.dtd">
<svg version="1.1" xmlns="http://www.w3.org/2000/svg" xmlns:xlink="http://www.w3.org/1999/xlink" x="0px" y="0px"
	 viewBox="0 0 30 30" enable-background="new 0 0 30 30" xml:space="preserve">
<g id="Background_xA0_Image_1_">
</g>
<g id="Row_1_1_">
	<g id="layout">
		<g>
			<path fill-rule="evenodd" clip-rule="evenodd" d="M23,4H7C5.3,4,4,5.3,4,7v16c0,1.7,1.3,3,3,3h16c1.7,0,3-1.3,3-3V7
				C26,5.3,24.7,4,23,4z M11,24H7c-0.6,0-1-0.4-1-1V12h5V24z M24,23c0,0.6-0.4,1-1,1H13V12h11V23z M24,10H6V7c0-0.6,0.4-1,1-1h16
				c0.6,0,1,0.4,1,1V10z"/>
		</g>
	</g>
</g>
</svg>
